<mxfile host="app.diagrams.net" agent="Mozilla/5.0 (Linux; Android 10; K) AppleWebKit/537.36 (KHTML, like Gecko) Chrome/133.0.0.0 Mobile Safari/537.36" version="26.1.0">
  <diagram name="Страница — 1" id="6QA8SHW2VdY-vEqaMRBo">
    <mxGraphModel dx="438" dy="1243" grid="0" gridSize="10" guides="1" tooltips="1" connect="1" arrows="1" fold="1" page="0" pageScale="1" pageWidth="827" pageHeight="1169" math="0" shadow="0">
      <root>
        <mxCell id="0" />
        <mxCell id="1" parent="0" />
        <mxCell id="11-KVf9eLjA8l7BzduWu-2" value="" style="edgeStyle=none;curved=1;rounded=0;orthogonalLoop=1;jettySize=auto;html=1;fontSize=12;startSize=8;endSize=8;" edge="1" parent="1" source="xc3SVQbHwGPVMSDJRFCD-1" target="11-KVf9eLjA8l7BzduWu-1">
          <mxGeometry relative="1" as="geometry" />
        </mxCell>
        <mxCell id="11-KVf9eLjA8l7BzduWu-3" style="edgeStyle=none;curved=1;rounded=0;orthogonalLoop=1;jettySize=auto;html=1;fontSize=12;startSize=8;endSize=8;" edge="1" parent="1" source="xc3SVQbHwGPVMSDJRFCD-1" target="xc3SVQbHwGPVMSDJRFCD-4">
          <mxGeometry relative="1" as="geometry" />
        </mxCell>
        <mxCell id="11-KVf9eLjA8l7BzduWu-7" style="edgeStyle=none;curved=1;rounded=0;orthogonalLoop=1;jettySize=auto;html=1;fontSize=12;startSize=8;endSize=8;" edge="1" parent="1" source="xc3SVQbHwGPVMSDJRFCD-1" target="11-KVf9eLjA8l7BzduWu-5">
          <mxGeometry relative="1" as="geometry" />
        </mxCell>
        <mxCell id="11-KVf9eLjA8l7BzduWu-9" style="edgeStyle=none;curved=1;rounded=0;orthogonalLoop=1;jettySize=auto;html=1;entryX=0;entryY=0.25;entryDx=0;entryDy=0;fontSize=12;startSize=8;endSize=8;" edge="1" parent="1" source="xc3SVQbHwGPVMSDJRFCD-1" target="11-KVf9eLjA8l7BzduWu-8">
          <mxGeometry relative="1" as="geometry" />
        </mxCell>
        <mxCell id="11-KVf9eLjA8l7BzduWu-11" style="edgeStyle=none;curved=1;rounded=0;orthogonalLoop=1;jettySize=auto;html=1;entryX=0;entryY=0.5;entryDx=0;entryDy=0;fontSize=12;startSize=8;endSize=8;" edge="1" parent="1" source="xc3SVQbHwGPVMSDJRFCD-1" target="11-KVf9eLjA8l7BzduWu-10">
          <mxGeometry relative="1" as="geometry" />
        </mxCell>
        <mxCell id="xc3SVQbHwGPVMSDJRFCD-1" value="Метрики эффективности двх" style="rounded=1;whiteSpace=wrap;html=1;" parent="1" vertex="1">
          <mxGeometry x="77" y="-268" width="106" height="288" as="geometry" />
        </mxCell>
        <mxCell id="xc3SVQbHwGPVMSDJRFCD-4" value="Отчёты на целевом / отчёты всего" style="rounded=1;whiteSpace=wrap;html=1;" parent="1" vertex="1">
          <mxGeometry x="317" y="-164" width="120" height="60" as="geometry" />
        </mxCell>
        <mxCell id="xc3SVQbHwGPVMSDJRFCD-5" style="edgeStyle=none;curved=1;rounded=0;orthogonalLoop=1;jettySize=auto;html=1;exitX=0.5;exitY=1;exitDx=0;exitDy=0;fontSize=12;startSize=8;endSize=8;" parent="1" source="xc3SVQbHwGPVMSDJRFCD-4" target="xc3SVQbHwGPVMSDJRFCD-4" edge="1">
          <mxGeometry relative="1" as="geometry" />
        </mxCell>
        <mxCell id="11-KVf9eLjA8l7BzduWu-1" value="% описанных процессов/данных" style="whiteSpace=wrap;html=1;rounded=1;" vertex="1" parent="1">
          <mxGeometry x="317" y="-268" width="120" height="60" as="geometry" />
        </mxCell>
        <mxCell id="11-KVf9eLjA8l7BzduWu-5" value="V техдолга / v бэклога" style="whiteSpace=wrap;html=1;" vertex="1" parent="1">
          <mxGeometry x="317" y="-59" width="120" height="60" as="geometry" />
        </mxCell>
        <mxCell id="11-KVf9eLjA8l7BzduWu-8" value="Витрины dwh / витрины dma/ витрины всего" style="rounded=1;whiteSpace=wrap;html=1;" vertex="1" parent="1">
          <mxGeometry x="317" y="46" width="120" height="60" as="geometry" />
        </mxCell>
        <mxCell id="11-KVf9eLjA8l7BzduWu-10" value="Цифры хранилища&amp;nbsp;" style="whiteSpace=wrap;html=1;" vertex="1" parent="1">
          <mxGeometry x="317" y="-380" width="120" height="60" as="geometry" />
        </mxCell>
      </root>
    </mxGraphModel>
  </diagram>
</mxfile>
